<svg xmlns="http://www.w3.org/2000/svg" version="1.1" xmlns:xlink="http://www.w3.org/1999/xlink" xmlns:svgjs="http://svgjs.dev/svgjs" viewBox="0 0 7.3474827905829985 7.507001613331454"><g transform="matrix(1,0,0,1,2.0597071171016172,2.614280927000838)"><g><path d=" M -0.19540331977286074 -0.4611066123095022 L -0.4899676134180836 -0.6915580755491417 L -0.3561529473668095 -0.4357776322983216 L -0.4202357071981531 -0.3538667057231794 L -0.7007013044019251 -0.42219714392703955 L -0.4061370107567023 -0.1917456806874 L -0.5262921854404715 -0.038162693359008404 L -1.0854917803284614 -0.47565076528452727 L -0.9542453587508057 -0.6434106437509243 L -0.5969096690364495 -0.558109970504078 L -0.7650779811717434 -0.8852053981602381 L -0.6344477399770814 -1.0521776715634126 L -0.0752481450890915 -0.6146895996378938 L -0.19540331977286074 -0.4611066123095022 M 0.3228925413000103 -0.8813799305072363 Q 0.2543062427693422 -0.838287939907334 0.1821951141727852 -0.8290016525689614 Q 0.11008398557622821 -0.8197153652305889 0.04246563130336762 -0.8380527086976759 Q -0.025152722969492954 -0.8563900521647629 -0.0810586983549959 -0.8974390706206961 Q -0.13696467374049884 -0.9384880890766292 -0.17367266573300824 -0.9969134544916427 Q -0.21144465749341645 -1.0570323087592655 -0.2226305505559561 -1.1255879489093905 Q -0.2338164436184957 -1.1941435890595153 -0.21961533308217057 -1.2627061769594414 Q -0.20541422254584546 -1.3312687648593673 -0.16453371483112614 -1.391202345504835 Q -0.12365320711640693 -1.4511359261503027 -0.056760397438347876 -1.493163916982306 Q 0.01182590109232029 -1.5362559075822086 0.08393702968887728 -1.5455421949205812 Q 0.15604815828543428 -1.5548284822589538 0.22350914028711732 -1.5358017666367396 Q 0.2909701222888003 -1.5167750510145257 0.3468760976743033 -1.4757260325585926 Q 0.40278207305980623 -1.4346770141026595 0.4389580651683662 -1.3770983931139504 Q 0.47619805704482504 -1.3178262832726322 0.48780732232051693 -1.249536643064482 Q 0.49941658759620877 -1.1812470028563316 0.4852154770598837 -1.1126844149564057 Q 0.47101436652355855 -1.0441218270564798 0.4308232309639663 -0.9840308741398345 Q 0.39063209540437394 -0.9239399212231892 0.3228925413000103 -0.8813799305072363 M -0.004953269556809525 -1.1005559426610172 Q 0.014198726265369277 -1.0700731433140536 0.04048816664072 -1.0470272038723454 Q 0.06677760701607074 -1.0239812644306374 0.09781049246682105 -1.012182534812555 Q 0.12884337791757136 -1.000383805194473 0.16291508112107586 -1.0034852630472095 Q 0.19698678432458033 -1.0065867208999462 0.23255005022937125 -1.0289307160258214 Q 0.2681133161341621 -1.0512747111516967 0.2858503952064124 -1.0813146183750013 Q 0.30358747427866273 -1.1113545255983057 0.3054689937829925 -1.1450139950586942 Q 0.3073505132873223 -1.1786734645190826 0.2975725892249102 -1.2120934016978042 Q 0.2877946651624981 -1.245513338876526 0.2691746692242687 -1.275149393797185 Q 0.25002267340208983 -1.3056321931441488 0.22399923296871385 -1.3282547603727046 Q 0.1979757925353378 -1.3508773276012604 0.16694290708458753 -1.3626760572193426 Q 0.1359100216338372 -1.3744747868374247 0.10168094615915513 -1.3706839568295612 Q 0.06745187068447311 -1.3668931268216977 0.03273534920598675 -1.3450811315797717 Q -0.0028279166988041116 -1.3227371364538965 -0.020141623557902166 -1.2929632291725666 Q -0.03745533041700019 -1.263189321891237 -0.04029222201843166 -1.2301105969151782 Q -0.043129113619863185 -1.1970318719391195 -0.03335118955745106 -1.163611934760398 Q -0.023573265495038936 -1.1301919975816763 -0.004953269556809525 -1.1005559426610172 M 1.052600656304777 -1.187963802634445 Q 0.9737950634782933 -1.1692373897567354 0.9025317953385639 -1.1836525419947468 Q 0.8312685271988347 -1.1980676942327582 0.7731490713659949 -1.2371909463176063 Q 0.715029615533155 -1.2763141984024546 0.6753086742036783 -1.3331714478953756 Q 0.6355877328742018 -1.3900286973882967 0.6196356033857824 -1.45715938757382 Q 0.6032210933324814 -1.5262358948661698 0.6146934461984277 -1.5947441799105295 Q 0.6261657990643739 -1.663252464954889 0.6616767546416594 -1.7235970756006465 Q 0.697187710218945 -1.7839416862464037 0.7551816108301498 -1.8275301880777088 Q 0.8131755114413546 -1.871118689909014 0.8900352871610117 -1.889382722221842 Q 0.9688408799874955 -1.9081091350995516 1.0401041481272246 -1.8936939828615402 Q 1.111367416266954 -1.8792788306235289 1.1691160129643077 -1.8395535291207534 Q 1.226864609661661 -1.799828227617978 1.2665855509911377 -1.742970978125057 Q 1.3063064923206142 -1.6861137286321362 1.3220274315265927 -1.6199559470000262 Q 1.3382107512974528 -1.5518523482610895 1.3272248527082133 -1.4834596583579505 Q 1.3162389541189738 -1.4150669684548114 1.2807279985416884 -1.3547223578090541 Q 1.245217042964403 -1.2943777471632967 1.1878251917711249 -1.2504183861965052 Q 1.1304333405778473 -1.2064590252297138 1.052600656304777 -1.187963802634445 M 0.8127338775265134 -1.5009892463902834 Q 0.8210567276943843 -1.4659645384674018 0.8385306876902869 -1.4356840047524622 Q 0.8560046476861896 -1.4054034710375225 0.8815893612391399 -1.3842452000208851 Q 0.9071740747920902 -1.3630869290042478 0.9404312350490317 -1.3550581500407866 Q 0.9736883953059731 -1.3470293710773253 1.014550554549335 -1.3567393629398414 Q 1.055412713792697 -1.3664493548023575 1.081873834429458 -1.3891827904126384 Q 1.1083349550662192 -1.411916226022919 1.1209489390906564 -1.4431794217493836 Q 1.1335629231150937 -1.4744426174758485 1.1350606799107519 -1.5092313616983848 Q 1.13655843670641 -1.544020105920921 1.1284667768209802 -1.5780719052903895 Q 1.1201439266531092 -1.6130966132132711 1.102785561798427 -1.6428906926515041 Q 1.0854271969437448 -1.672684772089737 1.0598424833907945 -1.6938430431063745 Q 1.0342577698378441 -1.7150013141230118 1.0006297504454165 -1.722428043668546 Q 0.9670017310529888 -1.7298547732140799 0.9271124803630402 -1.7203759716340046 Q 0.8862503211196783 -1.7106659797714885 0.860275654759624 -1.6880481393024283 Q 0.8343009883995696 -1.665430298833368 0.8209693598159847 -1.6350244165190961 Q 0.8076377312323999 -1.6046185342048245 0.8061399744367417 -1.569829789982288 Q 0.8046422176410833 -1.5350410457597516 0.8127338775265134 -1.5009892463902834 M 1.750347243890571 -1.608389453925609 L 1.7182495868708156 -1.2608686050347226 L 1.5240760466595755 -1.278802826005646 L 1.5893750050665276 -1.9857936647234948 L 1.7407307902568276 -1.97181416940257 L 1.9913215861014435 -1.586132625848873 L 2.02452288748864 -1.9456026156758357 L 2.2186964276998804 -1.9276683947049122 L 2.153397469292928 -1.2206775559870635 L 1.9990543988686091 -1.2349329623998488 L 1.750347243890571 -1.608389453925609 M 2.3052527332323844 -1.1763989136758979 L 2.581083406285468 -1.8306293316503932 L 2.881476527777983 -1.7039803183893998 Q 2.929391995009918 -1.6837786352925543 2.961777479878598 -1.6473344262900191 Q 2.9941629647472787 -1.6108902172874835 3.009857872468123 -1.5657468914060846 Q 3.025552780188967 -1.5206035655246857 3.0245844459639217 -1.4732610652862255 Q 3.0236161117388765 -1.4259185650477653 3.006133885981991 -1.384453256866283 Q 2.9902056358479396 -1.3466737538564884 2.9643854519159523 -1.316320531593962 Q 2.938565267983965 -1.2859673093314354 2.905134330216943 -1.2658769534356948 Q 2.871703392449921 -1.2457865975399545 2.8332815912451257 -1.237025022785427 L 2.8701023757934627 -0.9382521494765453 L 2.6729117991081925 -1.021389845298179 L 2.6424220589374325 -1.2708279653687078 L 2.569627406796608 -1.3015189839196848 L 2.48493573535214 -1.1006426020627271 L 2.3052527332323844 -1.1763989136758979 M 2.635671370767065 -1.4581657037163949 L 2.749009879796449 -1.4103809533142408 Q 2.760067295311511 -1.4057190264457382 2.7736997046850282 -1.4097386551192403 Q 2.7873321140585454 -1.4137582837927425 2.800847395152505 -1.4265092514795992 Q 2.814362676246464 -1.4392602191664559 2.82368652998347 -1.4613750501965797 Q 2.833398877626184 -1.4844113325196253 2.83197669108054 -1.5029174770513583 Q 2.830554504534896 -1.5214236215830912 2.82253280852475 -1.5345728570407449 Q 2.8145111125146043 -1.5477220924983983 2.8034536969995427 -1.552384019366901 L 2.6947224444347673 -1.5982263002405122 L 2.635671370767065 -1.4581657037163949 M 3.5176475729790413 -1.3296608829262913 L 3.688086950228737 -1.1937402491625546 L 3.4221036900735915 -0.49773097816306566 L 3.2673009529385464 -0.621181829012698 L 3.3203471679450716 -0.7566665110748467 L 3.1725809188616196 -0.8745059596131322 L 3.053078983367828 -0.7920178549359267 L 2.8974944142270505 -0.9160921949312643 L 3.5176475729790413 -1.3296608829262913 M 3.37716396470904 -0.8776328353369399 L 3.483780834774193 -1.1123706529495059 L 3.276307635969541 -0.9580629351329125 L 3.37716396470904 -0.8776328353369399 M 4.088078690690898 -0.7706468325293179 L 3.927272722533468 -0.4979373889727154 L 4.2384991162521946 -0.5622657019681312 L 4.3625813350031475 -0.3903715397931446 L 3.834044209403609 -0.31100840689771514 L 3.6435011522756757 -0.17346443799925287 L 3.52995421624886 -0.33076381281975953 L 3.7221189164161803 -0.4694783686875704 L 3.9645817654246187 -0.9417301731846112 L 4.088078690690898 -0.7706468325293179" fill="#ffffff" fill-rule="nonzero"></path></g><g><path d=" M -1.420163701220954 1.7693253572021788 L -0.8001297353509713 1.5899669132541034 L -0.731165150565303 1.8283743395674912 Q -0.7013562824161861 1.9314222381205306 -0.722754334648513 2.012847909070104 Q -0.7441523868808402 2.0942735800196774 -0.804221002757793 2.149977425590881 Q -0.864289618634746 2.205681271162084 -0.949871771670321 2.2304377887774525 Q -1.0441867974646282 2.257720481659695 -1.125291259472076 2.239068600018331 Q -1.206395721479524 2.220416718376968 -1.2651560725162836 2.161232263843421 Q -1.3239164235530432 2.102047809309874 -1.3511991164352857 2.0077327835155665 L -1.420163701220954 1.7693253572021788 M -0.9998900419544322 2.0575269081545557 Q -0.9518592417814054 2.043632944186747 -0.9204175528397281 2.0165568585876277 Q -0.8889758638980508 1.9894807729885082 -0.8779844875137144 1.9522322279432616 Q -0.8669931111293779 1.914983682898015 -0.8796239874637495 1.8713193191043542 L -0.899328154545369 1.8032029115862436 L -1.2224444466184585 1.8966713964605928 L -1.202740279536839 1.9647878039787035 Q -1.1898567856757802 2.0093254550482373 -1.1599299688574192 2.0342643327012384 Q -1.130003152039058 2.059203210354239 -1.0880887098073855 2.0650594237116144 Q -1.0461742675757126 2.07091563706899 -0.9998900419544322 2.0575269081545557 M -0.7769592857924027 2.8768663512674744 L -0.909838103476803 2.955780971785203 L -1.1447251504295708 2.5602710791481056 L -0.5897606765711929 2.2306864875740637 L -0.3590514624693637 2.6191616192749283 L -0.49193028015376417 2.6980762397926563 L -0.6321197824852579 2.4620209283768393 L -0.7102837928878463 2.5084412933872677 L -0.5905192511609411 2.7101044402259458 L -0.7140183875970307 2.783448616942423 L -0.833782929323936 2.581785470103745 L -0.921326620974835 2.6337762789154247 L -0.7769592857924027 2.8768663512674744 M -0.20176396134484442 2.800116311451787 L -0.425538293696317 3.2004831972227947 L -0.024946282642467787 2.978135637366502 L 0.1063856888574859 3.1103601366872144 L -0.5085202991190718 3.4071928070842517 L -0.632805189221467 3.2820632808978214 L -0.33373657660821254 2.667246814573413 L -0.20176396134484442 2.800116311451787 M 0.31246240235997647 3.804917661803291 L 0.2326496201506283 3.9372589528528508 L -0.1612603402674734 3.699698554041497 L 0.17207539719509835 3.1469790443639236 L 0.5589790539693998 3.3803140605877235 L 0.47916627176005167 3.5126553516372834 L 0.24406586060142177 3.3708702914771473 L 0.19711716518415817 3.4487181097415944 L 0.39796453630643136 3.5698457439181346 L 0.32378559754715486 3.692845296775961 L 0.12293822642488161 3.5717176625994207 L 0.0703556875575464 3.6589072190556013 L 0.31246240235997647 3.804917661803291 M 0.46549593014487345 4.038932187338964 L 0.6651685427088174 3.425138722043167 L 0.8337456212055505 3.479978383240306 L 0.681881944044241 3.94680721600049 L 0.9602502480234616 4.037362964233715 L 0.9124413126208271 4.184327596769329 L 0.46549593014487345 4.038932187338964 M 1.4441548319916195 4.254656429744028 Q 1.370629573634373 4.250612862867257 1.3122426815129316 4.2196326678825296 Q 1.2538557893914903 4.188652472897802 1.2133100353443853 4.139533704600952 Q 1.1727642812972805 4.090414936304103 1.1528373180311318 4.030594070632497 Q 1.132910354764983 3.970773204960891 1.1363548746970475 3.908140577471385 Q 1.139899235786563 3.8436925115039218 1.167602572277415 3.7869463358348976 Q 1.1953059087682671 3.7302001601658734 1.2418512810843585 3.6867814866656565 Q 1.2883966534004498 3.64336281316544 1.350207679575552 3.620358673720318 Q 1.412018705750654 3.5973545342751962 1.4837285256299437 3.6012982599945165 Q 1.5572537839871903 3.6053418268712876 1.6156406761086317 3.636322021856015 Q 1.674027568230073 3.6673022168407425 1.7140945023683258 3.7168498844677185 Q 1.7541614365065787 3.766397552094695 1.7740883997727275 3.8262184177663006 Q 1.7940153630388762 3.8860392834379063 1.7906207636855374 3.9477641916884343 Q 1.7871263231747476 4.011304538416919 1.7598768463033847 4.068075674375306 Q 1.7326273694320218 4.124846810333693 1.6860819971159304 4.16826548383391 Q 1.639536624799839 4.211684157334126 1.5781544979548634 4.2351671166881 Q 1.5167723711098877 4.258650076042073 1.4441548319916195 4.254656429744028 M 1.31598344285731 3.9198402905370044 Q 1.3141863020231896 3.952518183140225 1.3215911550256665 3.9834259834332553 Q 1.3289960080281435 4.014333783726286 1.345827497471483 4.039386755133724 Q 1.3626589869148225 4.064439726541162 1.3895706547334157 4.080031952396456 Q 1.4164823225520091 4.09562417825175 1.4546065305890998 4.097720842558224 Q 1.4927307386261908 4.0998175068646985 1.521668764294129 4.086841536981537 Q 1.550606789962067 4.073865567098376 1.569680131037098 4.04987673931162 Q 1.588753472112129 4.0258879115248645 1.5990491442697299 3.9959535625169824 Q 1.609344816427331 3.9660192135091004 1.611092036682726 3.934249040144858 Q 1.6128891775168466 3.9015711475416373 1.6054593642250068 3.871117206868096 Q 1.598029550933167 3.8406632661945546 1.5811980614898276 3.815610294787117 Q 1.564366572046488 3.790557323379679 1.5369760843190428 3.775393996854511 Q 1.5095855965915974 3.760230670329343 1.4723691077934848 3.758183926601595 Q 1.4342448997563941 3.7560872622951207 1.4057607337079452 3.7690881924676445 Q 1.3772765676594965 3.7820891226401683 1.3577992875437017 3.805145270898583 Q 1.338322007427907 3.828201419156998 1.3280263352703061 3.85813576816488 Q 1.3177306631127053 3.888070117172762 1.31598344285731 3.9198402905370044 M 2.0451081321139126 4.2322617288307445 L 1.9084100892627431 3.6014485906284763 L 2.1802816671358336 3.542533659484169 Q 2.226482065990084 3.5325219718387317 2.269617892723569 3.542708397214501 Q 2.3127537194570538 3.5528948225902703 2.3480196362791514 3.578274440949345 Q 2.3832855531012487 3.60365405930842 2.4073051922617994 3.6393773865351866 Q 2.4313248314223506 3.675100713761953 2.4399887918847485 3.7150818281550544 Q 2.4521183365321058 3.7710553883053968 2.4366903123387234 3.8264893714088286 Q 2.421262288145341 3.88192335451226 2.3814525568292813 3.9235719652951713 Q 2.341642825513221 3.9652205760780825 2.27944998090173 3.9786978479084794 L 2.176387552688402 4.001031612655995 L 2.2183596278173523 4.194717900160352 L 2.0451081321139126 4.2322617288307445 M 2.143657035386009 3.8499918471709442 L 2.235169363885775 3.830161004334789 Q 2.2458309943906016 3.827850614878149 2.2542564285036537 3.8195134734150806 Q 2.2626818626167053 3.8111763319520118 2.266072329951983 3.7946283619931074 Q 2.2694627972872605 3.7780803920342025 2.264071888555102 3.753203254189606 Q 2.258295914913503 3.7265491779275384 2.247567141136371 3.7135259618485206 Q 2.2368383673592396 3.700502745769503 2.224481041294365 3.6971343515967217 Q 2.2121237152294904 3.6937659574239396 2.2014620847246635 3.696076346880579 L 2.1143921022685754 3.7149445274431345 L 2.143657035386009 3.8499918471709442 M 3.2245472449270776 3.8047951973960275 L 3.0620282456397696 3.506152308864169 L 3.0812902592153604 3.767871133995368 L 2.9982451779123838 3.8130635829950474 L 2.7889376898165192 3.6547659392284992 L 2.9514566891038276 3.9534088277603576 L 2.7957471616607465 4.0381446696347565 L 2.4872217886821666 3.471202287662512 L 2.65730450327384 3.378644675768938 L 2.9246138821704584 3.578862103252046 L 2.9024471951970496 3.2452400426641153 L 3.071731399391579 3.1531169735493845 L 3.380256772370159 3.7200593555216286 L 3.2245472449270776 3.8047951973960275 M 3.8441691876426742 3.0849451488062765 L 3.9526913009086164 3.1949780913869197 L 3.6251814835803486 3.517990969696136 L 3.1719420693520015 3.058441621271096 L 3.4936266132495297 2.741174031311253 L 3.602148726515472 2.8512069738918964 L 3.406678440283976 3.0439933162819823 L 3.4705149774992363 3.108718576623537 L 3.6375061491804477 2.944020310608166 L 3.7383678779805587 3.046286221947823 L 3.5713767062993473 3.210984487963194 L 3.6428736279804386 3.2834767795457354 L 3.8441691876426742 3.0849451488062765 M 3.943134472354142 2.6667961730252214 L 4.216738281509121 2.827429105784853 L 4.126986356328238 2.980302294281188 L 3.5703711571877363 2.6535132333661786 L 3.6403316322005272 2.5343505428459583 L 4.054518912835032 2.477076626275924 L 3.77150752284951 2.310920498120546 L 3.861259448030393 2.158047309624211 L 4.417874647170894 2.4848363705392202 L 4.346533373309167 2.606350956267076 L 3.943134472354142 2.6667961730252214 M 4.187385331427032 1.5844065006456685 L 4.1389208844897265 1.763416516602355 L 4.612770926728015 1.8917047584952231 L 4.56644461715559 2.062817273747938 L 4.092594574917302 1.9345290318550699 L 4.043892557161676 2.1144165478899755 L 3.8947175438644375 2.074029508775554 L 4.038210318129794 1.544019461531247 L 4.187385331427032 1.5844065006456685" fill="#ffffff" fill-rule="nonzero"></path></g><g clip-path="url(#SvgjsClipPath1003)"><g clip-path="url(#SvgjsClipPath1001fa221771-45e3-4f52-9990-fe3c04006b95)"><path d=" M 2.8335660590207348 0.5517208747505586 L 2.7927235448961323 0.36148137281458176 L 2.7518810307715307 0.5517208747505586 L 2.6305498127716134 0.588041282741857 L 2.75003869123574 0.6238113815211659 L 2.792723544896133 0.8792984148090994 L 2.8354083985565257 0.6238113815211658 L 2.9548972770206525 0.5880412827418569 Z" fill="#ffffff" transform="matrix(1,0,0,1,0,0)" fill-rule="nonzero"></path></g><g clip-path="url(#SvgjsClipPath1001fa221771-45e3-4f52-9990-fe3c04006b95)"><path d=" M 3.145519602756273 1.2465699975933084 L 3.1170470826576935 1.113777992091526 L 3.088574562559113 1.2465699975933084 L 3.004018355812572 1.271932074319775 L 3.0873064587227894 1.2969113272465964 L 3.1170470826576935 1.4752593649061077 L 3.1467877065925967 1.2969113272465964 L 3.2300758095028135 1.2719320743197748 Z" fill="#ffffff" transform="matrix(1,0,0,1,0,0)" fill-rule="nonzero"></path></g><g clip-path="url(#SvgjsClipPath1001fa221771-45e3-4f52-9990-fe3c04006b95)"><path d=" M 2.321611006458278 1.1363406697830902 L 2.2374376235113824 0.7522966192769445 L 2.1533838730018755 1.1363406697830902 L 1.9032802993964466 1.2096514274150652 L 2.149507782030472 1.2818615666230613 L 2.237437623511382 1.797668783669444 L 2.3253674649922917 1.2818615666230617 L 2.5715949476263176 1.2096514274150654 Z" fill="#ffffff" transform="matrix(1,0,0,1,0,0)" fill-rule="nonzero"></path></g><g clip-path="url(#SvgjsClipPath1001fa221771-45e3-4f52-9990-fe3c04006b95)"><path d=" M 1.91596133775968 0.25670728414930155 C 1.6150906873317619 0.14525336905293101 1.278780989843876 0.18742809624885184 1.0147478010902002 0.36972345745092183 C 0.7507146123365244 0.5520188186529915 0.5920948054744347 0.8515562572303372 0.5896922103778247 1.1723978864121332 C 0.592094805474429 1.4932395155939109 0.7507146123365133 1.792776954171259 1.0147478010901858 1.975072315373334 C 1.2787809898438585 2.1573676765754084 1.6150906873317437 2.199542403771335 1.9159613377596634 2.08808848867497 C 1.514175262831288 2.414115773619652 0.9464421658080958 2.439053249745016 0.5176173833216766 2.1495102538700617 C 0.08879260083525733 1.8599672579951065 -0.10025232489628985 1.324052373683986 0.05199395851174054 0.8295355289524738 C 0.20424024191977094 0.33501868422096165 0.6619651647849629 -0.0017759745239513988 1.1793844207556494 1.4344418139979062e-16 C 1.4469268381812035 -0.000495246645758514 1.7066800483142859 0.09003235418314645 1.91596133775968 0.25670728414930155 Z" fill="#ffffff" transform="matrix(1,0,0,1,0,0)" fill-rule="nonzero"></path></g></g><g transform="matrix(0.2355552637207921,-0.9718609559671734,0.9718609559671734,0.2355552637207921,-1.5429490030638806,-0.5694293557108694)"><g clip-path="url(#SvgjsClipPath1004)"><path d=" M -1.2879243699486833 0.8044632525364133 C -1.2879243699486833 0.8310463454517738 -1.2711933926038557 0.8472187140411155 -1.2436798491336363 0.8472187140411155 L -1.023201563199467 0.8472187140411155 C -0.995687808215141 0.8472187140411155 -0.97895704238442 0.8310463454517738 -0.97895704238442 0.8044632525364133 L -0.97895704238442 0.5810093861508334 C -0.97895704238442 0.5544254471790466 -0.995687808215141 0.538252021019172 -1.023201563199467 0.538252021019172 L -1.2436798491336363 0.538252021019172 C -1.2711933926038557 0.538252021019172 -1.2879243699486833 0.5544254471790466 -1.2879243699486833 0.5810093861508334 L -1.2879243699486833 0.8044632525364133 Z" fill="#ffffff" transform="matrix(1,0,0,1,0,0)" fill-rule="nonzero"></path></g></g><g transform="matrix(-0.2355552637207921,-0.9718609559671734,-0.9718609559671734,0.2355552637207921,6.067861970794906,4.772848539250941)"><g clip-path="url(#SvgjsClipPath1005)"><path d=" M 4.209032640373128 0.8044632525364133 C 4.209032640373128 0.8310463454517738 4.225763617717956 0.8472187140411155 4.2532771611881754 0.8472187140411155 L 4.473755447122344 0.8472187140411155 C 4.50126920210667 0.8472187140411155 4.517999967937391 0.8310463454517738 4.517999967937391 0.8044632525364133 L 4.517999967937391 0.5810093861508334 C 4.517999967937391 0.5544254471790466 4.50126920210667 0.538252021019172 4.473755447122344 0.538252021019172 L 4.2532771611881754 0.538252021019172 C 4.225763617717956 0.538252021019172 4.209032640373128 0.5544254471790466 4.209032640373128 0.5810093861508334 L 4.209032640373128 0.8044632525364133 Z" fill="#ffffff" transform="matrix(1,0,0,1,0,0)" fill-rule="nonzero"></path></g></g></g><defs><clipPath id="SvgjsClipPath1003"><path d=" M 0 0 h 3.230075809502814 v 2.3447957728242654 h -3.230075809502814 Z"></path></clipPath><clipPath id="SvgjsClipPath1001fa221771-45e3-4f52-9990-fe3c04006b95"><path d=" M 0 1.4344418139979062e-16 L 3.2300758095028135 1.4344418139979062e-16 L 3.2300758095028135 2.3447957728242654 L 0 2.3447957728242654 Z"></path></clipPath><clipPath id="SvgjsClipPath1004"><path d=" M -1.4295603496257991 0.3893879697777928 h 0.5922394984326016 v 0.6133909090909089 h -0.5922394984326016 Z"></path></clipPath><clipPath id="SvgjsClipPath1005"><path d=" M 4.067396660696012 0.3893879697777928 h 0.5922394984326016 v 0.6133909090909089 h -0.5922394984326016 Z"></path></clipPath></defs></svg>