<svg xmlns="http://www.w3.org/2000/svg" version="1.1" xmlns:xlink="http://www.w3.org/1999/xlink" xmlns:svgjs="http://svgjs.dev/svgjs" viewBox="0 0 6.681408537177081 5.115849927664448"><g transform="matrix(1,0,0,1,3.342684398666207,4.81701357949215)"><g><path d=" M -2.2905194654592824 -0.5059920671768158 Q -2.370841392526896 -0.4870748509475529 -2.4436624601563626 -0.4970128106010422 Q -2.5164835277858297 -0.5069507702545315 -2.576463745361925 -0.5464999262135795 Q -2.6364439629380203 -0.5860490821726273 -2.6809693032484843 -0.6558250834861152 Q -2.7254946435589487 -0.7256010847996031 -2.7492251159885566 -0.8263599518903373 Q -2.7729555884181645 -0.9271188189810715 -2.7642498291335236 -1.0094316736535975 Q -2.7555440698488827 -1.0917445283261236 -2.719518197083807 -1.1539047948077226 Q -2.6834923243187307 -1.2160650612893213 -2.622760365285479 -1.2574570905311118 Q -2.5620284062522276 -1.298849119772902 -2.481706479184614 -1.317766336002165 Q -2.400433996767088 -1.3369074246128394 -2.3269000126251864 -1.3271373692454085 Q -2.2533660284832853 -1.3173673138779778 -2.19338581090719 -1.2778181579189298 Q -2.1334055933310947 -1.2382690019598819 -2.0888802530206307 -1.1684930006463943 Q -2.0443549127101663 -1.0987169993329062 -2.0206244402805584 -0.997958132242172 Q -1.9968939678509505 -0.8971992651514378 -2.0055997271355914 -0.8148864104789117 Q -2.0143054864202323 -0.7325735558063857 -2.050331359185308 -0.6704132893247869 Q -2.0863572319503843 -0.6082530228431879 -2.1478021074960703 -0.566693089315339 Q -2.2092469830417563 -0.5251331557874901 -2.2905194654592824 -0.5059920671768158 M -2.1190069189965115 -0.9747873407660925 Q -2.125723090438853 -1.0033040012634702 -2.1408529863853976 -1.0228161143066399 Q -2.1559828823319416 -1.04232822734981 -2.1884448424161524 -1.0502337276404075 Q -2.220906802500363 -1.058139227931005 -2.2749783257968463 -1.053430689752679 Q -2.32904984909333 -1.0487221515743528 -2.41364927523555 -1.0287975096287387 Q -2.4972981460278576 -1.0090967400645359 -2.5473124335468023 -0.9892912524783141 Q -2.5973267210657474 -0.9694857648920923 -2.622373359651248 -0.9480359855261054 Q -2.647419998236749 -0.9265862061601183 -2.652251764638369 -0.9023727731073091 Q -2.657083531039989 -0.8781593400545 -2.6503673595976474 -0.8496426795571224 Q -2.6436511881553058 -0.8211260190597448 -2.6284653241134084 -0.8013762671790968 Q -2.613279460071511 -0.7816265152984488 -2.5812927776622567 -0.7736090788171456 Q -2.549306095253003 -0.7655916423358424 -2.4957098496314756 -0.7701882443234628 Q -2.4421136040099487 -0.7747848463110831 -2.358464733217641 -0.794485615875286 Q -2.2738653070754204 -0.8144102578209002 -2.2233757418815197 -0.8343276815978276 Q -2.1728861766876184 -0.8542451053747551 -2.147364260427161 -0.8758068209314477 Q -2.121842344166704 -0.8973685364881404 -2.1170665458604367 -0.9218196083784277 Q -2.1122907475541695 -0.946270680268715 -2.1190069189965115 -0.9747873407660925 M -2.8219790572221064 -1.693221852903726 L -2.768764954098119 -1.9703862297801131 L -2.316095106742912 -1.8834759990724244 Q -2.277733255272132 -1.8761107252836373 -2.2477017340533876 -1.881034616408359 Q -2.217670212834643 -1.8859585075330805 -2.195664033803476 -1.9008756105425395 Q -2.1736578547723093 -1.9157927135519988 -2.159759487085287 -1.938978664483169 Q -2.145861119398265 -1.962164615414339 -2.1403371640566746 -1.9909360040174242 Q -2.1342608131809255 -2.022584531480818 -2.138538291981344 -2.0495087490333543 Q -2.142815770781763 -2.076432966585891 -2.158110734246454 -2.0977658938631607 Q -2.1734056977111456 -2.11909882114043 -2.199856244723649 -2.1341211734273555 Q -2.2263067917361528 -2.1491435257142815 -2.264668643206933 -2.1565087995030687 L -2.71637944427537 -2.2432348983660377 L -2.6961249413562056 -2.3487299899106833 L -2.2607179271628497 -2.265134132407949 Q -2.194543733375754 -2.252429035122291 -2.1454135980050593 -2.2208709378597273 Q -2.0962834626343643 -2.1893128405971636 -2.0661903015121683 -2.1427647679343664 Q -2.036097140389972 -2.0962166952715693 -2.0266368153615537 -2.0367252418998243 Q -2.0171764903331355 -1.9772337885280797 -2.0303419172305928 -1.9086619790240602 Q -2.0482947720907614 -1.8151549660640334 -2.081084211671606 -1.7518424617681014 Q -2.113873651252451 -1.6885299574721693 -2.1593226278771547 -1.652507983550429 Q -2.204771604501859 -1.6164860096286888 -2.261385919013295 -1.6064732890661115 Q -2.318000233524731 -1.5964605685035342 -2.384174427311827 -1.6091656657891922 L -2.8219790572221064 -1.693221852903726 M -2.3638499726285946 -2.7890202443580296 L -2.473806083955753 -2.6136019099161247 L -2.568548533453858 -2.6729885832508398 L -2.198743309980914 -3.2629568495578125 L -2.1040008604828095 -3.2035701762230975 L -2.213956971809968 -3.0281518417811926 L -1.6934940833007315 -2.7019141341171227 L -1.843387084119358 -2.4627825366939597 L -2.3638499726285946 -2.7890202443580296 M -1.9236828887695583 -3.5576709806343687 L -1.5824474288442518 -3.7998788415557847 Q -1.516350478613679 -3.846794249855616 -1.4568859629859658 -3.8680447021162117 Q -1.3974214473582527 -3.8892951543768075 -1.346368639724866 -3.887809182861806 Q -1.2953158320914793 -3.886323211346805 -1.2537216884766047 -3.863154027782362 Q -1.2121275448617304 -3.8399848442179194 -1.1821695130558143 -3.7977783579261075 Q -1.1451459077107669 -3.7456175116598125 -1.1411464918786143 -3.6876801877863628 Q -1.1371470760464617 -3.629742863912913 -1.1687669762280284 -3.5713724011031918 L -0.8707234546838433 -3.4146735034992455 L -1.1307313372173615 -3.23012072265714 L -1.377316883821722 -3.378435883896593 L -1.4258941604972033 -3.343955885025633 L -1.2735603949935355 -3.129339883975761 L -1.5037051976036022 -2.9659838237510487 L -1.9236828887695583 -3.5576709806343687 M -1.4631128089562355 -3.4259172541956797 Q -1.4348424266287014 -3.4459834830468123 -1.4181971191171625 -3.469773855754053 Q -1.4015518116056236 -3.4935642284612936 -1.3963387474125601 -3.519119888745085 Q -1.391125683219497 -3.544675549028876 -1.3970364793899754 -3.5707184379502035 Q -1.402947275560454 -3.596761326871531 -1.4199046520543686 -3.6206517908102924 Q -1.4368620285482834 -3.6445422547490534 -1.459496149475895 -3.658714980124641 Q -1.4821302704035062 -3.6728877055002283 -1.5079748093308325 -3.6763987763419297 Q -1.5338193482581588 -3.6799098471836316 -1.5617695734323076 -3.6720464504355648 Q -1.5897197986064564 -3.6641830536874984 -1.6179901809339905 -3.644116824836366 L -1.6315281104992885 -3.634507644823147 L -1.4770489129205129 -3.416025451240896 L -1.4631128089562355 -3.4259172541956797 M -0.880179750847738 -4.160617576938972 L -0.28103347742970053 -4.291528365840578 L -0.2571651886888823 -4.182289116945092 L -0.5801126624978086 -4.111726534073765 L -0.5387941274053516 -3.920334363349613 L -0.29169399234918636 -3.974324640938014 L -0.2678257036083681 -3.865085392042528 L -0.5149258386645333 -3.811095114454127 L -0.4734429612896614 -3.6212382539283476 L -0.15001846019298193 -3.6919050651347876 L -0.12615017145216367 -3.5826658162393015 L -0.7252964448702012 -3.4517550273376956 L -0.880179750847738 -4.160617576938972 M 0.3243646255985819 -4.087200735374489 L 0.27395228169962843 -4.282238125412685 L 0.5666645128313585 -4.229850428558832 L 0.7886579431141498 -3.452508341526832 L 0.47479737344416667 -3.5086810279727536 L 0.44239987989199386 -3.632536787682566 L 0.1607424620870779 -3.682945967249656 L 0.08787890700567294 -3.577929133009456 L -0.03372403958928227 -3.599692823163848 L 0.3243646255985819 -4.087200735374489 M 0.41163140421169947 -3.7516366384195456 L 0.356367497583796 -3.963911642213093 L 0.23138988257886073 -3.783895072442854 L 0.41163140421169947 -3.7516366384195456 M 1.045547249759187 -3.7145960877938453 Q 1.0736409189499454 -3.7580658118116643 1.1110243512686222 -3.7911713958966584 Q 1.1484077835872992 -3.824276979981652 1.1926705878718171 -3.845087942947732 Q 1.2369333921563352 -3.865898905913811 1.2870628788801577 -3.8741976620794616 Q 1.3371923656039801 -3.882496418245112 1.3908381323520287 -3.8768950954677655 Q 1.444483899100077 -3.871293772690419 1.5005732675988164 -3.851032176245039 Q 1.5566626360975555 -3.830770579799659 1.612845203931907 -3.794460837543679 Q 1.6489332767014173 -3.7711377914230493 1.6790302806857202 -3.745291495818784 Q 1.7091272846700232 -3.7194452002145195 1.7330756229346023 -3.6926309536966766 Q 1.7570239611991814 -3.6658167071788337 1.7750761285455372 -3.639324773702463 Q 1.793128295891893 -3.6128328402260927 1.8058018217365337 -3.588363575482261 L 1.7260081171178554 -3.542261140721993 Q 1.7101989145060874 -3.5681755560348574 1.6857804957584928 -3.5947122281241866 Q 1.6613620770108979 -3.6212489002135158 1.6297850133375764 -3.641656565569067 Q 1.5875455645278085 -3.668955130914804 1.5416512110030334 -3.6771047828027985 Q 1.4957568574782583 -3.6852544346907936 1.451488632552673 -3.6743304120020843 Q 1.407220407627088 -3.6634063893133755 1.366676218914271 -3.63350630023548 Q 1.3261320302014539 -3.6036062111575853 1.294327876400595 -3.5543952028355257 Q 1.2627887572147434 -3.505594286249483 1.2519762193631707 -3.456479187583569 Q 1.241163681511598 -3.4073640889176553 1.2490496356206977 -3.3624431069475254 Q 1.2569355897297974 -3.317522124977395 1.2828798185685308 -3.278953156063625 Q 1.3088240474072643 -3.2403841871498553 1.3506534044810148 -3.2133506564191254 Q 1.3801800094742507 -3.1942681641386104 1.4143447202301116 -3.1823622772383953 Q 1.4485094309859727 -3.17045639033818 1.48080093898221 -3.1664469737822487 L 1.4715430129584839 -3.0747585852407497 Q 1.4437625140584354 -3.075852621031603 1.4125311445222266 -3.081502404531603 Q 1.3812997749860179 -3.0871521880316033 1.347425178472177 -3.0977078222297694 Q 1.313550581958336 -3.108263456427936 1.277827862311884 -3.1249552165323196 Q 1.2421051426654324 -3.1416469766367032 1.2060170698959218 -3.164970022757333 Q 1.1219482640124034 -3.2193021188338 1.070522767645513 -3.2877108630315157 Q 1.0190972712786226 -3.3561196072292314 0.9996328389048965 -3.429453174368848 Q 0.9801684065311707 -3.5027867415084644 0.9919200935596133 -3.576294167505799 Q 1.0036717805880562 -3.6498015935031334 1.045547249759187 -3.7145960877938453 M 2.1429359605740257 -3.336321674029917 L 2.297333264156874 -3.100073276729719 L 2.042691825544378 -2.933655421829867 L 2.156753501374614 -2.7591258964887175 L 2.4113949399871104 -2.92554375138857 L 2.566059366932559 -2.688886619836988 L 1.9584131460127037 -2.292350037264647 L 1.804015842429855 -2.5285984345648447 L 2.0631533578075802 -2.697954646453298 L 1.9490916819773445 -2.8724841717944476 L 1.689954166599619 -2.703127959905994 L 1.5355568630167702 -2.939376357206192 L 2.1429359605740257 -3.336321674029917 M 2.727394690612996 -2.2186672874518454 L 2.8282013567133593 -1.6137276973510715 L 2.717905842276196 -1.5953481380063397 L 2.6635697650867485 -1.9214182833074733 L 2.470351944786979 -1.8897156292341095 L 2.5119266685449313 -1.6402262122976439 L 2.401631154107768 -1.621846652952912 L 2.3600564303498155 -1.8713360698893777 L 2.1683637895376275 -1.8393925562684028 L 2.22278012681155 -1.5128407711662333 L 2.112484612374386 -1.4944612118215015 L 2.0116779462740233 -2.0994008019222754 L 2.727394690612996 -2.2186672874518454 M 2.819211597599708 -1.1657761991004323 L 2.7209492680530154 -0.7590197589613479 Q 2.7019159580124654 -0.6802314636718636 2.671028985511379 -0.6251532895024566 Q 2.6401420130102924 -0.5700751153330497 2.6006664467956937 -0.5376671386817405 Q 2.5611908805810946 -0.5052591620304314 2.514607934754723 -0.49541472155699784 Q 2.4680249889283514 -0.48557028108356426 2.417714390731452 -0.4977240814709032 Q 2.355538085412642 -0.5127443442137465 2.3144721411393374 -0.5538091350394321 Q 2.2734061968660324 -0.5948739258651177 2.2589168360683094 -0.6596580862732506 L 1.931246990672621 -0.58208903533722 L 2.0061189873983976 -0.8920213053615166 L 2.2894776658676217 -0.9421179937134533 L 2.3034660021624833 -1.0000226444683755 L 2.047641356614098 -1.0618235728530516 L 2.113913966273361 -1.3361587215116173 L 2.819211597599708 -1.1657761991004323 M 2.3853606744274076 -0.9626574670438488 Q 2.377219921337775 -0.9289588588176236 2.3802916113589734 -0.900086504980141 Q 2.3833633013801716 -0.8712141511426584 2.3962155525035733 -0.8485186129934419 Q 2.4090678036269755 -0.8258230748442252 2.4306287036346106 -0.8100656269037017 Q 2.4521896036422457 -0.794308178963178 2.4806673007348303 -0.7874286693099672 Q 2.509144997827415 -0.7805491596567566 2.5355215545922976 -0.7847260996810422 Q 2.56189811135718 -0.7889030397053278 2.583693725029756 -0.8032285077764714 Q 2.605489338702332 -0.8175539758476149 2.62140278007619 -0.8418399899162905 Q 2.6373162214500483 -0.8661260039849659 2.645456974539681 -0.899824612211191 L 2.649355363343167 -0.9159619738969891 L 2.389373721725114 -0.9792694570145232 L 2.3853606744274076 -0.9626574670438488" fill="#ffffff" fill-rule="nonzero"></path></g><g clip-path="url(#SvgjsClipPath1008)"><g clip-path="url(#SvgjsClipPath1006547d1624-b3ae-469d-9936-3f3074f95016)"><path d=" M 1.3856573825277039 -0.8939454067616213 C 1.292891680397736 -0.9539963530725712 1.1712625213731775 -0.9437524919690286 1.089847576688597 -0.8690316887980707 L 0.3088929873395194 -1.4020553492882701 C 0.31427909153694356 -1.4256994184989442 0.3160931296860905 -1.4500169126534936 0.31427472157373293 -1.4741984245830968 L 1.1917757673141476 -1.686823321095115 C 1.210788535791942 -1.6542276869734243 1.2371825053571053 -1.62654659426872 1.2688366342367874 -1.606004519060654 C 1.3228884614396312 -1.5710127201873192 1.3886322272552878 -1.5589400686083343 1.4515896443846934 -1.5724452394977384 C 1.5145470615140995 -1.5859504103871425 1.569554878282767 -1.6239258202482094 1.6044991099654502 -1.6780084115735607 C 1.6395254542622717 -1.7320151736208198 1.6516563317512563 -1.797726709030123 1.6382217079341985 -1.8606797552195085 C 1.6247870841171412 -1.923632801408894 1.5868880859491603 -1.978667608689054 1.5328663715376627 -2.013670887302222 C 1.4788689519639098 -2.048686841847377 1.4131724492760642 -2.0608165591648158 1.350231201029545 -2.0473912970630215 C 1.2872899527830257 -2.033966034961227 1.2322605145860694 -1.9960856780550071 1.1972502900696385 -1.9420845431350728 C 1.1705892176687391 -1.901064664627686 1.1570003755078209 -1.8529213381147147 1.1582791111322428 -1.804015223471148 L 0.27507157133313553 -1.589859316358017 C 0.2566753235012458 -1.6178595178777657 0.23266125055972675 -1.6417314022295009 0.20455229516070306 -1.659961044184694 C 0.15415998753224747 -1.6926234376811868 0.0934136989589962 -1.7053581619396685 0.034146175830865655 -1.6956846248773092 L -0.23545087274677856 -2.3242804622854134 C -0.2130125802564382 -2.3412160424228343 -0.1936879879790343 -2.3619220840263218 -0.17833953789923362 -2.3854744920692563 C -0.10544503561756935 -2.4979383366188888 -0.1374907712451532 -2.6481981533820473 -0.24992588206638255 -2.721136967797918 C -0.36241845329644673 -2.794040284333525 -0.5127070219379706 -2.7619972746038206 -0.5856811463163232 -2.649550623630769 C -0.6585712622118913 -2.5370603503365556 -0.6265054695132546 -2.386783099062365 -0.5140484078885377 -2.3138417536414675 C -0.4647740934693061 -2.2818882396615563 -0.40555493074114657 -2.26895929965073 -0.34744661793115994 -2.277468653299896 L -0.07710726118328126 -1.6472026225087602 C -0.09825467318398884 -1.6307009320656365 -0.11651890907357165 -1.6108062407833343 -0.131156574828601 -1.5883283057569049 C -0.15326895504240423 -1.554287719272687 -0.16646314348247016 -1.5152316451477994 -0.16952462837768123 -1.4747551557107732 L -1.1759553244359888 -1.2151792674313175 C -1.1944726790504732 -1.2614922127551824 -1.2268894996498756 -1.3009272750143566 -1.2687438457155096 -1.328056503567853 C -1.381202657967063 -1.4009782690786186 -1.5314832243530019 -1.3689281082032214 -1.60440632144417 -1.2564701594007042 C -1.6773008237258342 -1.1440063148510715 -1.6452550880982506 -0.9937464980879132 -1.5328199772770212 -0.9208076836720422 C -1.4203324361293839 -0.8478771155243636 -1.2700231294171136 -0.8799245468159256 -1.1970647130270782 -0.9923940278391918 C -1.1773043736607112 -1.023032351724561 -1.164697994299121 -1.0577276448606068 -1.160181275818469 -1.093904670118986 L -0.14767293161635275 -1.3550579632601931 C -0.12863097097502263 -1.3132351774045654 -0.09805086816663322 -1.2777139737739793 -0.05952383640081105 -1.2526658300282438 C -0.03414410366975362 -1.236289749693278 -0.00593390020996809 -1.224788545717203 0.023661072926279392 -1.2187516255005788 L 0.05613705537411118 -0.6652680960682456 C -0.00311536328730333 -0.6503851611819722 -0.05451473227541137 -0.6135765808098443 -0.08768515260914556 -0.5622728374479786 C -0.12269911540821488 -0.5082625451836948 -0.13482278519145052 -0.4425548612836905 -0.12138894907700148 -0.3796055061748551 C -0.10795511296255222 -0.31665615106601974 -0.07006426685555933 -0.26162191741266394 -0.016052414181357832 -0.2266103617193176 C 0.09641143036827438 -0.15371585943765442 0.24667124713143518 -0.18576159506523604 0.3196100615473052 -0.2981967058864665 C 0.392527438238194 -0.41068195069643254 0.3604572187909496 -0.560979948054114 0.24797732311951726 -0.6339055758757675 C 0.22643353820929013 -0.6478642066451283 0.20279997603695765 -0.6582949239458395 0.17796838381411773 -0.6648041534618478 L 0.14493567023860954 -1.224690090862468 C 0.18635230292892468 -1.2376554404131008 0.22350464526264036 -1.2615528271342278 0.2524775664015726 -1.2938639334763495 L 1.0237821495375785 -0.7674746522576361 C 0.9885591953220056 -0.6625745055342134 1.0288142424003546 -0.5471347119211964 1.1216276452268308 -0.4868821639083696 C 1.2341128900367964 -0.4139647872174801 1.384410887394477 -0.4460350066647245 1.4573365152161326 -0.558514902336158 C 1.530055233588894 -0.6709561402497286 1.4979819577765636 -0.8210466154103477 1.3856573825277012 -0.8939454067616213 Z" fill="#fffef5" transform="matrix(1,0,0,1,0,0)" fill-rule="evenodd"></path></g></g></g><defs><clipPath id="SvgjsClipPath1008"><path d=" M -1.6436094716847673 -2.7602009352565955 h 3.2872189433695347 v 2.5727009352565955 h -3.2872189433695347 Z"></path></clipPath><clipPath id="SvgjsClipPath1006547d1624-b3ae-469d-9936-3f3074f95016"><path d=" M -1.6436094716847673 -2.7602009352565955 L 1.6436094716847673 -2.7602009352565955 L 1.6436094716847673 -0.18749999999999956 L -1.6436094716847673 -0.18749999999999956 Z"></path></clipPath></defs></svg>